<mxfile host="Electron" modified="2024-04-28T07:31:58.628Z" agent="Mozilla/5.0 (Windows NT 10.0; Win64; x64) AppleWebKit/537.36 (KHTML, like Gecko) draw.io/24.2.5 Chrome/120.0.6099.109 Electron/28.1.0 Safari/537.36" etag="Fp9Q10TpCTB5bV6vmBhU" version="24.2.5" type="device">
  <diagram name="Page-1" id="IZArVk3bthfFl5n1hTx3">
    <mxGraphModel dx="1036" dy="606" grid="1" gridSize="10" guides="1" tooltips="1" connect="1" arrows="1" fold="1" page="1" pageScale="1" pageWidth="827" pageHeight="1169" math="0" shadow="0">
      <root>
        <mxCell id="0" />
        <mxCell id="1" parent="0" />
        <mxCell id="hMHaI0RxBwTy4JvBv5Fo-7" value="" style="rounded=1;whiteSpace=wrap;html=1;fillColor=#f0a30a;strokeColor=#BD7000;fontColor=#000000;" vertex="1" parent="1">
          <mxGeometry x="20" y="225.7" width="120" height="60" as="geometry" />
        </mxCell>
        <mxCell id="n7JdorX-rEDpdq5E5ICj-8" value="" style="rounded=0;whiteSpace=wrap;html=1;dashed=1;dashPattern=8 8;" parent="1" vertex="1">
          <mxGeometry x="231" y="449" width="509" height="170" as="geometry" />
        </mxCell>
        <mxCell id="n7JdorX-rEDpdq5E5ICj-9" value="For each projection, possibly&amp;nbsp;with multiple query handlers" style="shape=note;whiteSpace=wrap;html=1;backgroundOutline=1;darkOpacity=0.05;size=12;fillColor=#fff2cc;strokeColor=#d6b656;" parent="1" vertex="1">
          <mxGeometry x="70" y="439" width="130" height="80" as="geometry" />
        </mxCell>
        <mxCell id="n7JdorX-rEDpdq5E5ICj-3" value="" style="rounded=0;whiteSpace=wrap;html=1;dashed=1;dashPattern=8 8;" parent="1" vertex="1">
          <mxGeometry x="448" y="119" width="322" height="200" as="geometry" />
        </mxCell>
        <mxCell id="pmRbA6UQI1MbucfsGj4L-7" value="" style="rounded=0;whiteSpace=wrap;html=1;" parent="1" vertex="1">
          <mxGeometry x="149" y="49" width="290" height="153" as="geometry" />
        </mxCell>
        <mxCell id="jeh4MoZEL8pX43xTBR2h-1" value="" style="outlineConnect=0;dashed=0;verticalLabelPosition=bottom;verticalAlign=top;align=center;html=1;shape=mxgraph.aws3.api_gateway;fillColor=#D9A741;gradientColor=none;" parent="1" vertex="1">
          <mxGeometry x="266" y="8" width="50" height="60" as="geometry" />
        </mxCell>
        <mxCell id="jeh4MoZEL8pX43xTBR2h-3" style="edgeStyle=orthogonalEdgeStyle;rounded=0;orthogonalLoop=1;jettySize=auto;html=1;entryX=0;entryY=0.5;entryDx=0;entryDy=0;startArrow=classic;startFill=1;" parent="1" source="jeh4MoZEL8pX43xTBR2h-2" target="pmRbA6UQI1MbucfsGj4L-12" edge="1">
          <mxGeometry relative="1" as="geometry" />
        </mxCell>
        <mxCell id="jeh4MoZEL8pX43xTBR2h-2" value="" style="verticalLabelPosition=bottom;aspect=fixed;html=1;shape=mxgraph.salesforce.web;" parent="1" vertex="1">
          <mxGeometry x="20" y="134.4" width="60" height="47.400000000000006" as="geometry" />
        </mxCell>
        <mxCell id="pmRbA6UQI1MbucfsGj4L-8" style="edgeStyle=orthogonalEdgeStyle;rounded=0;orthogonalLoop=1;jettySize=auto;html=1;" parent="1" source="jeh4MoZEL8pX43xTBR2h-11" target="jeh4MoZEL8pX43xTBR2h-20" edge="1">
          <mxGeometry relative="1" as="geometry" />
        </mxCell>
        <mxCell id="jeh4MoZEL8pX43xTBR2h-11" value="Mapping Template" style="rounded=0;whiteSpace=wrap;html=1;" parent="1" vertex="1">
          <mxGeometry x="320.5" y="128.4" width="76" height="60" as="geometry" />
        </mxCell>
        <mxCell id="jeh4MoZEL8pX43xTBR2h-13" value="Authorizer" style="outlineConnect=0;dashed=0;verticalLabelPosition=top;verticalAlign=bottom;align=center;html=1;shape=mxgraph.aws3.lambda_function;fillColor=#F58534;gradientColor=none;labelPosition=center;" parent="1" vertex="1">
          <mxGeometry x="267" y="93.4" width="30" height="32" as="geometry" />
        </mxCell>
        <mxCell id="jeh4MoZEL8pX43xTBR2h-38" style="edgeStyle=orthogonalEdgeStyle;rounded=0;orthogonalLoop=1;jettySize=auto;html=1;startArrow=classic;startFill=1;endArrow=none;endFill=0;" parent="1" source="jeh4MoZEL8pX43xTBR2h-16" target="jeh4MoZEL8pX43xTBR2h-36" edge="1">
          <mxGeometry relative="1" as="geometry">
            <Array as="points">
              <mxPoint x="679" y="573" />
            </Array>
          </mxGeometry>
        </mxCell>
        <mxCell id="jeh4MoZEL8pX43xTBR2h-16" value="Query Handler" style="outlineConnect=0;dashed=0;verticalLabelPosition=bottom;verticalAlign=top;align=center;html=1;shape=mxgraph.aws3.lambda_function;fillColor=#F58534;gradientColor=none;labelPosition=center;" parent="1" vertex="1">
          <mxGeometry x="270" y="547" width="47" height="47" as="geometry" />
        </mxCell>
        <mxCell id="jeh4MoZEL8pX43xTBR2h-29" style="edgeStyle=orthogonalEdgeStyle;rounded=0;orthogonalLoop=1;jettySize=auto;html=1;exitX=1;exitY=0.75;exitDx=0;exitDy=0;exitPerimeter=0;" parent="1" source="jeh4MoZEL8pX43xTBR2h-19" target="jeh4MoZEL8pX43xTBR2h-28" edge="1">
          <mxGeometry relative="1" as="geometry">
            <Array as="points">
              <mxPoint x="740" y="170" />
              <mxPoint x="740" y="248" />
            </Array>
          </mxGeometry>
        </mxCell>
        <mxCell id="jeh4MoZEL8pX43xTBR2h-19" value="Event Store Table" style="sketch=0;points=[[0,0,0],[0.25,0,0],[0.5,0,0],[0.75,0,0],[1,0,0],[0,1,0],[0.25,1,0],[0.5,1,0],[0.75,1,0],[1,1,0],[0,0.25,0],[0,0.5,0],[0,0.75,0],[1,0.25,0],[1,0.5,0],[1,0.75,0]];outlineConnect=0;fontColor=#232F3E;fillColor=#C925D1;strokeColor=#ffffff;dashed=0;verticalLabelPosition=bottom;verticalAlign=top;align=center;html=1;fontSize=12;fontStyle=0;aspect=fixed;shape=mxgraph.aws4.resourceIcon;resIcon=mxgraph.aws4.dynamodb;" parent="1" vertex="1">
          <mxGeometry x="649.5" y="134.4" width="48" height="48" as="geometry" />
        </mxCell>
        <mxCell id="jeh4MoZEL8pX43xTBR2h-21" style="edgeStyle=orthogonalEdgeStyle;rounded=0;orthogonalLoop=1;jettySize=auto;html=1;entryX=0;entryY=0.25;entryDx=0;entryDy=0;entryPerimeter=0;" parent="1" target="jeh4MoZEL8pX43xTBR2h-19" edge="1">
          <mxGeometry relative="1" as="geometry">
            <mxPoint x="530" y="146" as="sourcePoint" />
          </mxGeometry>
        </mxCell>
        <mxCell id="jeh4MoZEL8pX43xTBR2h-20" value="Command Handler" style="outlineConnect=0;dashed=0;verticalLabelPosition=bottom;verticalAlign=top;align=center;html=1;shape=mxgraph.aws3.lambda_function;fillColor=#F58534;gradientColor=none;labelPosition=center;" parent="1" vertex="1">
          <mxGeometry x="490" y="135.4" width="47" height="45.4" as="geometry" />
        </mxCell>
        <mxCell id="jeh4MoZEL8pX43xTBR2h-28" value="DynamoDb&lt;div&gt;Stream&lt;/div&gt;" style="sketch=0;outlineConnect=0;fontColor=#232F3E;gradientColor=none;fillColor=#C925D1;strokeColor=none;dashed=0;verticalLabelPosition=bottom;verticalAlign=top;align=center;html=1;fontSize=12;fontStyle=0;aspect=fixed;pointerEvents=1;shape=mxgraph.aws4.dynamodb_stream;labelPosition=center;" parent="1" vertex="1">
          <mxGeometry x="671.5" y="225.7" width="49" height="49" as="geometry" />
        </mxCell>
        <mxCell id="jeh4MoZEL8pX43xTBR2h-31" value="Projection Queue" style="outlineConnect=0;dashed=0;verticalLabelPosition=bottom;verticalAlign=top;align=center;html=1;shape=mxgraph.aws3.sqs;fillColor=#D9A741;gradientColor=none;" parent="1" vertex="1">
          <mxGeometry x="380" y="486" width="36.5" height="43" as="geometry" />
        </mxCell>
        <mxCell id="jeh4MoZEL8pX43xTBR2h-37" style="edgeStyle=orthogonalEdgeStyle;rounded=0;orthogonalLoop=1;jettySize=auto;html=1;" parent="1" source="jeh4MoZEL8pX43xTBR2h-33" target="jeh4MoZEL8pX43xTBR2h-36" edge="1">
          <mxGeometry relative="1" as="geometry" />
        </mxCell>
        <mxCell id="jeh4MoZEL8pX43xTBR2h-33" value="Projection Handler" style="outlineConnect=0;dashed=0;verticalLabelPosition=bottom;verticalAlign=top;align=center;html=1;shape=mxgraph.aws3.lambda_function;fillColor=#F58534;gradientColor=none;labelPosition=center;" parent="1" vertex="1">
          <mxGeometry x="510" y="484.5" width="47" height="47.5" as="geometry" />
        </mxCell>
        <mxCell id="jeh4MoZEL8pX43xTBR2h-36" value="Projection Store" style="sketch=0;outlineConnect=0;fontColor=#232F3E;gradientColor=none;fillColor=#C925D1;strokeColor=none;dashed=0;verticalLabelPosition=top;verticalAlign=bottom;align=center;html=1;fontSize=12;fontStyle=0;aspect=fixed;pointerEvents=1;shape=mxgraph.aws4.rds_instance;labelPosition=center;" parent="1" vertex="1">
          <mxGeometry x="649.5" y="478.5" width="58" height="58" as="geometry" />
        </mxCell>
        <mxCell id="pmRbA6UQI1MbucfsGj4L-1" value="Event Bus" style="sketch=0;points=[[0,0,0],[0.25,0,0],[0.5,0,0],[0.75,0,0],[1,0,0],[0,1,0],[0.25,1,0],[0.5,1,0],[0.75,1,0],[1,1,0],[0,0.25,0],[0,0.5,0],[0,0.75,0],[1,0.25,0],[1,0.5,0],[1,0.75,0]];outlineConnect=0;fontColor=#232F3E;fillColor=#E7157B;strokeColor=#ffffff;dashed=0;verticalLabelPosition=bottom;verticalAlign=top;align=center;html=1;fontSize=12;fontStyle=0;aspect=fixed;shape=mxgraph.aws4.resourceIcon;resIcon=mxgraph.aws4.sns;" parent="1" vertex="1">
          <mxGeometry x="469.60000000000014" y="223.5" width="53.4" height="53.4" as="geometry" />
        </mxCell>
        <mxCell id="pmRbA6UQI1MbucfsGj4L-3" style="edgeStyle=orthogonalEdgeStyle;rounded=0;orthogonalLoop=1;jettySize=auto;html=1;entryX=1;entryY=0.5;entryDx=0;entryDy=0;entryPerimeter=0;" parent="1" source="hMHaI0RxBwTy4JvBv5Fo-1" target="pmRbA6UQI1MbucfsGj4L-1" edge="1">
          <mxGeometry relative="1" as="geometry" />
        </mxCell>
        <mxCell id="pmRbA6UQI1MbucfsGj4L-13" style="edgeStyle=orthogonalEdgeStyle;rounded=0;orthogonalLoop=1;jettySize=auto;html=1;" parent="1" source="pmRbA6UQI1MbucfsGj4L-12" target="jeh4MoZEL8pX43xTBR2h-11" edge="1">
          <mxGeometry relative="1" as="geometry" />
        </mxCell>
        <mxCell id="pmRbA6UQI1MbucfsGj4L-14" style="edgeStyle=orthogonalEdgeStyle;rounded=0;orthogonalLoop=1;jettySize=auto;html=1;exitX=1;exitY=0.75;exitDx=0;exitDy=0;entryX=0.5;entryY=0;entryDx=0;entryDy=0;entryPerimeter=0;startArrow=classic;startFill=1;endArrow=none;endFill=0;" parent="1" source="pmRbA6UQI1MbucfsGj4L-12" target="jeh4MoZEL8pX43xTBR2h-16" edge="1">
          <mxGeometry relative="1" as="geometry">
            <mxPoint x="300" y="229" as="targetPoint" />
          </mxGeometry>
        </mxCell>
        <mxCell id="pmRbA6UQI1MbucfsGj4L-12" value="Route" style="rounded=0;whiteSpace=wrap;html=1;" parent="1" vertex="1">
          <mxGeometry x="184" y="128.4" width="76" height="60" as="geometry" />
        </mxCell>
        <mxCell id="pmRbA6UQI1MbucfsGj4L-15" value="" style="endArrow=classic;html=1;rounded=0;entryX=0.5;entryY=1;entryDx=0;entryDy=0;entryPerimeter=0;dashed=1;" parent="1" edge="1">
          <mxGeometry width="50" height="50" relative="1" as="geometry">
            <mxPoint x="286" y="169" as="sourcePoint" />
            <mxPoint x="286" y="130" as="targetPoint" />
          </mxGeometry>
        </mxCell>
        <mxCell id="pmRbA6UQI1MbucfsGj4L-16" value="" style="endArrow=classic;html=1;rounded=0;dashed=1;" parent="1" edge="1">
          <mxGeometry width="50" height="50" relative="1" as="geometry">
            <mxPoint x="276" y="158" as="sourcePoint" />
            <mxPoint x="276" y="130" as="targetPoint" />
          </mxGeometry>
        </mxCell>
        <mxCell id="hGsWU7hip5WxAQi82xJ5-1" value="" style="rounded=0;whiteSpace=wrap;html=1;dashed=1;dashPattern=8 8;" parent="1" vertex="1">
          <mxGeometry x="477" y="326" width="226" height="100" as="geometry" />
        </mxCell>
        <mxCell id="hGsWU7hip5WxAQi82xJ5-3" value="Projection Replay&lt;div&gt;Queue&lt;/div&gt;" style="outlineConnect=0;dashed=0;verticalLabelPosition=top;verticalAlign=bottom;align=center;html=1;shape=mxgraph.aws3.sqs;fillColor=#D9A741;gradientColor=none;opacity=50;labelPosition=center;" parent="1" vertex="1">
          <mxGeometry x="513" y="366" width="40" height="47" as="geometry" />
        </mxCell>
        <mxCell id="hGsWU7hip5WxAQi82xJ5-9" style="edgeStyle=orthogonalEdgeStyle;rounded=0;orthogonalLoop=1;jettySize=auto;html=1;" parent="1" source="hGsWU7hip5WxAQi82xJ5-5" target="hGsWU7hip5WxAQi82xJ5-3" edge="1">
          <mxGeometry relative="1" as="geometry" />
        </mxCell>
        <mxCell id="hGsWU7hip5WxAQi82xJ5-5" value="Replay&lt;div&gt;Step Function&lt;/div&gt;" style="sketch=0;points=[[0,0,0],[0.25,0,0],[0.5,0,0],[0.75,0,0],[1,0,0],[0,1,0],[0.25,1,0],[0.5,1,0],[0.75,1,0],[1,1,0],[0,0.25,0],[0,0.5,0],[0,0.75,0],[1,0.25,0],[1,0.5,0],[1,0.75,0]];outlineConnect=0;fontColor=#232F3E;fillColor=#E7157B;strokeColor=#ffffff;dashed=0;verticalLabelPosition=top;verticalAlign=bottom;align=center;html=1;fontSize=12;fontStyle=0;aspect=fixed;shape=mxgraph.aws4.resourceIcon;resIcon=mxgraph.aws4.step_functions;opacity=50;labelPosition=center;" parent="1" vertex="1">
          <mxGeometry x="623" y="366" width="48" height="48" as="geometry" />
        </mxCell>
        <mxCell id="hGsWU7hip5WxAQi82xJ5-7" style="rounded=0;orthogonalLoop=1;jettySize=auto;html=1;dashed=1;endArrow=none;endFill=0;dashPattern=8 8;entryX=0;entryY=0.384;entryDx=0;entryDy=0;entryPerimeter=0;" parent="1" source="hGsWU7hip5WxAQi82xJ5-8" target="hGsWU7hip5WxAQi82xJ5-1" edge="1">
          <mxGeometry relative="1" as="geometry">
            <mxPoint x="125.5" y="242.5" as="targetPoint" />
          </mxGeometry>
        </mxCell>
        <mxCell id="hGsWU7hip5WxAQi82xJ5-8" value="Temporary infrastructure for new projections to replay existing events" style="shape=note;whiteSpace=wrap;html=1;backgroundOutline=1;darkOpacity=0.05;size=12;fillColor=#fff2cc;strokeColor=#d6b656;" parent="1" vertex="1">
          <mxGeometry x="156" y="279" width="130" height="80" as="geometry" />
        </mxCell>
        <mxCell id="hGsWU7hip5WxAQi82xJ5-11" style="edgeStyle=orthogonalEdgeStyle;rounded=0;orthogonalLoop=1;jettySize=auto;html=1;exitX=1;exitY=0.25;exitDx=0;exitDy=0;exitPerimeter=0;entryX=1;entryY=0.5;entryDx=0;entryDy=0;entryPerimeter=0;" parent="1" source="jeh4MoZEL8pX43xTBR2h-19" target="hGsWU7hip5WxAQi82xJ5-5" edge="1">
          <mxGeometry relative="1" as="geometry">
            <Array as="points">
              <mxPoint x="790" y="146" />
              <mxPoint x="790" y="389" />
            </Array>
          </mxGeometry>
        </mxCell>
        <mxCell id="hGsWU7hip5WxAQi82xJ5-12" style="edgeStyle=orthogonalEdgeStyle;rounded=0;orthogonalLoop=1;jettySize=auto;html=1;entryX=0.5;entryY=0;entryDx=0;entryDy=0;entryPerimeter=0;" parent="1" source="hGsWU7hip5WxAQi82xJ5-3" target="jeh4MoZEL8pX43xTBR2h-33" edge="1">
          <mxGeometry relative="1" as="geometry" />
        </mxCell>
        <mxCell id="n7JdorX-rEDpdq5E5ICj-1" style="edgeStyle=orthogonalEdgeStyle;rounded=0;orthogonalLoop=1;jettySize=auto;html=1;exitX=0;exitY=0.75;exitDx=0;exitDy=0;exitPerimeter=0;" parent="1" source="jeh4MoZEL8pX43xTBR2h-19" edge="1">
          <mxGeometry relative="1" as="geometry">
            <mxPoint x="530" y="170" as="targetPoint" />
          </mxGeometry>
        </mxCell>
        <mxCell id="n7JdorX-rEDpdq5E5ICj-2" value="Rehydration" style="edgeLabel;html=1;align=center;verticalAlign=middle;resizable=0;points=[];" parent="n7JdorX-rEDpdq5E5ICj-1" vertex="1" connectable="0">
          <mxGeometry x="0.027" y="-3" relative="1" as="geometry">
            <mxPoint x="-1" as="offset" />
          </mxGeometry>
        </mxCell>
        <mxCell id="n7JdorX-rEDpdq5E5ICj-4" value="For each aggregate" style="shape=note;whiteSpace=wrap;html=1;backgroundOutline=1;darkOpacity=0.05;size=12;fillColor=#fff2cc;strokeColor=#d6b656;" parent="1" vertex="1">
          <mxGeometry x="577.5" y="39" width="130" height="40" as="geometry" />
        </mxCell>
        <mxCell id="n7JdorX-rEDpdq5E5ICj-5" style="rounded=0;orthogonalLoop=1;jettySize=auto;html=1;entryX=0.532;entryY=0.002;entryDx=0;entryDy=0;entryPerimeter=0;dashed=1;dashPattern=8 8;endArrow=none;endFill=0;" parent="1" source="n7JdorX-rEDpdq5E5ICj-4" target="n7JdorX-rEDpdq5E5ICj-3" edge="1">
          <mxGeometry relative="1" as="geometry" />
        </mxCell>
        <mxCell id="n7JdorX-rEDpdq5E5ICj-6" style="edgeStyle=orthogonalEdgeStyle;rounded=0;orthogonalLoop=1;jettySize=auto;html=1;entryX=0.5;entryY=0;entryDx=0;entryDy=0;entryPerimeter=0;" parent="1" source="pmRbA6UQI1MbucfsGj4L-1" target="jeh4MoZEL8pX43xTBR2h-31" edge="1">
          <mxGeometry relative="1" as="geometry" />
        </mxCell>
        <mxCell id="n7JdorX-rEDpdq5E5ICj-7" style="edgeStyle=orthogonalEdgeStyle;rounded=0;orthogonalLoop=1;jettySize=auto;html=1;entryX=0;entryY=0.5;entryDx=0;entryDy=0;entryPerimeter=0;" parent="1" source="jeh4MoZEL8pX43xTBR2h-31" target="jeh4MoZEL8pX43xTBR2h-33" edge="1">
          <mxGeometry relative="1" as="geometry" />
        </mxCell>
        <mxCell id="n7JdorX-rEDpdq5E5ICj-10" style="rounded=0;orthogonalLoop=1;jettySize=auto;html=1;entryX=-0.003;entryY=0.338;entryDx=0;entryDy=0;entryPerimeter=0;dashed=1;dashPattern=8 8;endArrow=none;endFill=0;" parent="1" source="n7JdorX-rEDpdq5E5ICj-9" target="n7JdorX-rEDpdq5E5ICj-8" edge="1">
          <mxGeometry relative="1" as="geometry" />
        </mxCell>
        <mxCell id="hMHaI0RxBwTy4JvBv5Fo-2" value="" style="edgeStyle=orthogonalEdgeStyle;rounded=0;orthogonalLoop=1;jettySize=auto;html=1;entryX=1;entryY=0.5;entryDx=0;entryDy=0;entryPerimeter=0;" edge="1" parent="1" source="jeh4MoZEL8pX43xTBR2h-28" target="hMHaI0RxBwTy4JvBv5Fo-1">
          <mxGeometry relative="1" as="geometry">
            <mxPoint x="650" y="248" as="sourcePoint" />
            <mxPoint x="523" y="248" as="targetPoint" />
          </mxGeometry>
        </mxCell>
        <mxCell id="hMHaI0RxBwTy4JvBv5Fo-1" value="Event&lt;div&gt;Forwarder&lt;/div&gt;" style="outlineConnect=0;dashed=0;verticalLabelPosition=bottom;verticalAlign=top;align=center;html=1;shape=mxgraph.aws3.lambda_function;fillColor=#F58534;gradientColor=none;labelPosition=center;" vertex="1" parent="1">
          <mxGeometry x="574" y="225.2" width="47.5" height="49.5" as="geometry" />
        </mxCell>
        <mxCell id="hMHaI0RxBwTy4JvBv5Fo-5" value="" style="endArrow=classic;html=1;rounded=0;" edge="1" parent="1">
          <mxGeometry width="50" height="50" relative="1" as="geometry">
            <mxPoint x="45" y="249.7" as="sourcePoint" />
            <mxPoint x="125" y="249.2" as="targetPoint" />
          </mxGeometry>
        </mxCell>
        <mxCell id="hMHaI0RxBwTy4JvBv5Fo-6" value="show main data flow" style="edgeLabel;html=1;align=center;verticalAlign=middle;resizable=0;points=[];labelBackgroundColor=none;" vertex="1" connectable="0" parent="hMHaI0RxBwTy4JvBv5Fo-5">
          <mxGeometry x="-0.3924" y="1" relative="1" as="geometry">
            <mxPoint x="11" y="16" as="offset" />
          </mxGeometry>
        </mxCell>
      </root>
    </mxGraphModel>
  </diagram>
</mxfile>
